<svg xmlns="http://www.w3.org/2000/svg" width="22.777" height="26.483" viewBox="0 0 22.777 26.483">
  <g id="Group_1291" data-name="Group 1291" transform="translate(-9.1 -2.5)">
    <g id="Group_1290" data-name="Group 1290" transform="translate(9.1 2.5)">
      <path id="Path_643" data-name="Path 643" d="M31.039,6.124,28.252,3.336A2.866,2.866,0,0,0,26.217,2.5H16.878a2.867,2.867,0,0,0-2.871,2.871V7.406H11.943A2.855,2.855,0,0,0,9.1,10.25V26.14a2.855,2.855,0,0,0,2.843,2.843H24.126a2.855,2.855,0,0,0,2.843-2.843V24.077H29a2.867,2.867,0,0,0,2.871-2.871V8.159A2.653,2.653,0,0,0,31.039,6.124ZM25.074,26.14a.94.94,0,0,1-.948.948H11.971a.94.94,0,0,1-.948-.948V10.25a.94.94,0,0,1,.948-.948h2.063V21.178a2.867,2.867,0,0,0,2.871,2.871h8.2V26.14Zm4.906-4.934a.94.94,0,0,1-.948.948H16.878a.94.94,0,0,1-.948-.948V5.371a.94.94,0,0,1,.948-.948h9.367a.973.973,0,0,1,.669.279L29.7,7.49a.973.973,0,0,1,.279.669Z" transform="translate(-9.1 -2.5)" fill="#00346a"/>
      <path id="Path_644" data-name="Path 644" d="M57.98,26.8H53.548a.948.948,0,0,0,0,1.9h4.46a.94.94,0,0,0,.948-.948A.983.983,0,0,0,57.98,26.8Z" transform="translate(-40.473 -20.026)" fill="#00346a"/>
      <path id="Path_645" data-name="Path 645" d="M57.98,41.7H53.548a.948.948,0,0,0,0,1.9h4.46a.94.94,0,0,0,.948-.948A.964.964,0,0,0,57.98,41.7Z" transform="translate(-40.473 -30.772)" fill="#00346a"/>
      <path id="Path_646" data-name="Path 646" d="M57.98,56.5H53.548a.948.948,0,0,0,0,1.9h4.46a.94.94,0,0,0,.948-.948A.964.964,0,0,0,57.98,56.5Z" transform="translate(-40.473 -41.446)" fill="#00346a"/>
      <circle id="Ellipse_427" data-name="Ellipse 427" cx="0.948" cy="0.948" r="0.948" transform="translate(9.255 6.802)" fill="#00346a"/>
      <circle id="Ellipse_428" data-name="Ellipse 428" cx="0.948" cy="0.948" r="0.948" transform="translate(9.255 10.928)" fill="#00346a"/>
      <circle id="Ellipse_429" data-name="Ellipse 429" cx="0.948" cy="0.948" r="0.948" transform="translate(9.255 15.054)" fill="#00346a"/>
    </g>
  </g>
</svg>
